<mxfile host="Electron" agent="Mozilla/5.0 (Windows NT 10.0; Win64; x64) AppleWebKit/537.36 (KHTML, like Gecko) draw.io/28.2.5 Chrome/138.0.7204.251 Electron/37.6.1 Safari/537.36" version="28.2.5">
  <diagram name="Page-1" id="1i7o0jQGGIaWhlyfUe22">
    <mxGraphModel dx="1111" dy="537" grid="1" gridSize="10" guides="1" tooltips="1" connect="1" arrows="1" fold="1" page="1" pageScale="1" pageWidth="850" pageHeight="1100" math="0" shadow="0">
      <root>
        <mxCell id="0" />
        <mxCell id="1" parent="0" />
        <mxCell id="77wYk42ZuULAPkZGeNKV-38" value="" style="rounded=1;whiteSpace=wrap;html=1;arcSize=7;dashed=1;" parent="1" vertex="1">
          <mxGeometry x="768" y="124" width="262" height="310" as="geometry" />
        </mxCell>
        <mxCell id="77wYk42ZuULAPkZGeNKV-18" value="" style="rounded=1;whiteSpace=wrap;html=1;fillColor=none;dashed=1;" parent="1" vertex="1">
          <mxGeometry x="190" y="130" width="470" height="310" as="geometry" />
        </mxCell>
        <mxCell id="77wYk42ZuULAPkZGeNKV-6" value="&lt;font style=&quot;font-size: 11px;&quot;&gt;&lt;b style=&quot;&quot;&gt;customer_information&lt;/b&gt;&lt;/font&gt;" style="text;html=1;align=center;verticalAlign=middle;whiteSpace=wrap;rounded=0;" parent="1" vertex="1">
          <mxGeometry x="473" y="300" width="170" height="9" as="geometry" />
        </mxCell>
        <mxCell id="77wYk42ZuULAPkZGeNKV-7" value="&lt;font style=&quot;font-size: 12px;&quot;&gt;crm_prd_info&lt;/font&gt;" style="swimlane;fontStyle=0;childLayout=stackLayout;horizontal=1;startSize=30;horizontalStack=0;resizeParent=1;resizeParentMax=0;resizeLast=0;collapsible=1;marginBottom=0;whiteSpace=wrap;html=1;rounded=1;fillColor=#dae8fc;strokeColor=#6c8ebf;fontSize=26;" parent="1" vertex="1">
          <mxGeometry x="467" y="187" width="183" height="60" as="geometry" />
        </mxCell>
        <mxCell id="77wYk42ZuULAPkZGeNKV-8" value="&lt;font style=&quot;font-size: 12px;&quot;&gt;prd_key&lt;/font&gt;" style="text;strokeColor=none;fillColor=none;align=left;verticalAlign=middle;spacingLeft=4;spacingRight=4;overflow=hidden;points=[[0,0.5],[1,0.5]];portConstraint=eastwest;rotatable=0;whiteSpace=wrap;html=1;fontSize=14;" parent="77wYk42ZuULAPkZGeNKV-7" vertex="1">
          <mxGeometry y="30" width="183" height="30" as="geometry" />
        </mxCell>
        <mxCell id="77wYk42ZuULAPkZGeNKV-9" value="&lt;font style=&quot;font-size: 11px;&quot;&gt;&lt;b&gt;current &amp;amp; history cust_info&lt;/b&gt;&lt;/font&gt;" style="text;html=1;align=center;verticalAlign=middle;whiteSpace=wrap;rounded=0;" parent="1" vertex="1">
          <mxGeometry x="474.5" y="170" width="167" height="17" as="geometry" />
        </mxCell>
        <mxCell id="77wYk42ZuULAPkZGeNKV-10" value="&lt;font style=&quot;font-size: 12px;&quot;&gt;crm_sales_details&lt;/font&gt;" style="swimlane;fontStyle=0;childLayout=stackLayout;horizontal=1;startSize=30;horizontalStack=0;resizeParent=1;resizeParentMax=0;resizeLast=0;collapsible=1;marginBottom=0;whiteSpace=wrap;html=1;rounded=1;fillColor=#dae8fc;strokeColor=#6c8ebf;fontSize=26;" parent="1" vertex="1">
          <mxGeometry x="200" y="230" width="190" height="90" as="geometry" />
        </mxCell>
        <mxCell id="77wYk42ZuULAPkZGeNKV-11" value="&lt;font style=&quot;font-size: 12px;&quot;&gt;prd_key&lt;/font&gt;" style="text;strokeColor=none;fillColor=none;align=left;verticalAlign=middle;spacingLeft=4;spacingRight=4;overflow=hidden;points=[[0,0.5],[1,0.5]];portConstraint=eastwest;rotatable=0;whiteSpace=wrap;html=1;fontSize=14;" parent="77wYk42ZuULAPkZGeNKV-10" vertex="1">
          <mxGeometry y="30" width="190" height="30" as="geometry" />
        </mxCell>
        <mxCell id="77wYk42ZuULAPkZGeNKV-15" value="&lt;font style=&quot;font-size: 12px;&quot;&gt;cust_id&lt;/font&gt;" style="text;strokeColor=none;fillColor=none;align=left;verticalAlign=middle;spacingLeft=4;spacingRight=4;overflow=hidden;points=[[0,0.5],[1,0.5]];portConstraint=eastwest;rotatable=0;whiteSpace=wrap;html=1;fontSize=14;" parent="77wYk42ZuULAPkZGeNKV-10" vertex="1">
          <mxGeometry y="60" width="190" height="30" as="geometry" />
        </mxCell>
        <mxCell id="77wYk42ZuULAPkZGeNKV-12" value="&lt;font style=&quot;font-size: 12px;&quot;&gt;crm_cust_info&lt;/font&gt;" style="swimlane;fontStyle=0;childLayout=stackLayout;horizontal=1;startSize=30;horizontalStack=0;resizeParent=1;resizeParentMax=0;resizeLast=0;collapsible=1;marginBottom=0;whiteSpace=wrap;html=1;rounded=1;fillColor=#dae8fc;strokeColor=#6c8ebf;fontSize=26;" parent="1" vertex="1">
          <mxGeometry x="466.5" y="316" width="183" height="90" as="geometry" />
        </mxCell>
        <mxCell id="77wYk42ZuULAPkZGeNKV-13" value="cust_id" style="text;strokeColor=none;fillColor=none;align=left;verticalAlign=middle;spacingLeft=4;spacingRight=4;overflow=hidden;points=[[0,0.5],[1,0.5]];portConstraint=eastwest;rotatable=0;whiteSpace=wrap;html=1;fontSize=12;" parent="77wYk42ZuULAPkZGeNKV-12" vertex="1">
          <mxGeometry y="30" width="183" height="30" as="geometry" />
        </mxCell>
        <mxCell id="77wYk42ZuULAPkZGeNKV-23" value="cst_key" style="text;strokeColor=none;fillColor=none;align=left;verticalAlign=middle;spacingLeft=4;spacingRight=4;overflow=hidden;points=[[0,0.5],[1,0.5]];portConstraint=eastwest;rotatable=0;whiteSpace=wrap;html=1;fontSize=12;" parent="77wYk42ZuULAPkZGeNKV-12" vertex="1">
          <mxGeometry y="60" width="183" height="30" as="geometry" />
        </mxCell>
        <mxCell id="77wYk42ZuULAPkZGeNKV-14" value="&lt;font style=&quot;font-size: 11px;&quot;&gt;&lt;b&gt;Transactional Records on Sales &amp;amp; Orders&lt;/b&gt;&lt;/font&gt;" style="text;html=1;align=center;verticalAlign=middle;whiteSpace=wrap;rounded=0;" parent="1" vertex="1">
          <mxGeometry x="207" y="190" width="167" height="30" as="geometry" />
        </mxCell>
        <mxCell id="77wYk42ZuULAPkZGeNKV-16" style="edgeStyle=orthogonalEdgeStyle;rounded=0;orthogonalLoop=1;jettySize=auto;html=1;entryX=0;entryY=0.5;entryDx=0;entryDy=0;" parent="1" source="77wYk42ZuULAPkZGeNKV-15" target="77wYk42ZuULAPkZGeNKV-13" edge="1">
          <mxGeometry relative="1" as="geometry" />
        </mxCell>
        <mxCell id="77wYk42ZuULAPkZGeNKV-17" style="edgeStyle=orthogonalEdgeStyle;rounded=0;orthogonalLoop=1;jettySize=auto;html=1;entryX=0;entryY=0.5;entryDx=0;entryDy=0;" parent="1" source="77wYk42ZuULAPkZGeNKV-11" target="77wYk42ZuULAPkZGeNKV-8" edge="1">
          <mxGeometry relative="1" as="geometry" />
        </mxCell>
        <mxCell id="77wYk42ZuULAPkZGeNKV-19" value="&lt;font style=&quot;font-size: 12px;&quot;&gt;bronze.erp_cust_az12&lt;/font&gt;" style="swimlane;fontStyle=0;childLayout=stackLayout;horizontal=1;startSize=30;horizontalStack=0;resizeParent=1;resizeParentMax=0;resizeLast=0;collapsible=1;marginBottom=0;whiteSpace=wrap;html=1;rounded=1;fillColor=#ffe6cc;strokeColor=#d79b00;fontSize=26;" parent="1" vertex="1">
          <mxGeometry x="805" y="263" width="195" height="60" as="geometry" />
        </mxCell>
        <mxCell id="77wYk42ZuULAPkZGeNKV-20" value="&lt;font style=&quot;font-size: 12px;&quot;&gt;cid&lt;/font&gt;" style="text;strokeColor=none;fillColor=none;align=left;verticalAlign=middle;spacingLeft=4;spacingRight=4;overflow=hidden;points=[[0,0.5],[1,0.5]];portConstraint=eastwest;rotatable=0;whiteSpace=wrap;html=1;fontSize=14;" parent="77wYk42ZuULAPkZGeNKV-19" vertex="1">
          <mxGeometry y="30" width="195" height="30" as="geometry" />
        </mxCell>
        <mxCell id="77wYk42ZuULAPkZGeNKV-21" value="&lt;font style=&quot;font-size: 11px;&quot;&gt;&lt;b&gt;extra cut_info (birthdate)&lt;/b&gt;&lt;/font&gt;" style="text;html=1;align=center;verticalAlign=middle;whiteSpace=wrap;rounded=0;" parent="1" vertex="1">
          <mxGeometry x="822" y="244" width="167" height="15" as="geometry" />
        </mxCell>
        <mxCell id="77wYk42ZuULAPkZGeNKV-24" style="edgeStyle=orthogonalEdgeStyle;rounded=0;orthogonalLoop=1;jettySize=auto;html=1;entryX=0;entryY=0.5;entryDx=0;entryDy=0;" parent="1" edge="1">
          <mxGeometry relative="1" as="geometry">
            <mxPoint x="628" y="404" as="sourcePoint" />
            <mxPoint x="803" y="299" as="targetPoint" />
            <Array as="points">
              <mxPoint x="748" y="404" />
              <mxPoint x="748" y="299" />
            </Array>
          </mxGeometry>
        </mxCell>
        <mxCell id="77wYk42ZuULAPkZGeNKV-26" value="&lt;font style=&quot;font-size: 11px;&quot;&gt;&lt;b&gt;location of customers&lt;/b&gt;&lt;/font&gt;" style="text;html=1;align=center;verticalAlign=middle;whiteSpace=wrap;rounded=0;" parent="1" vertex="1">
          <mxGeometry x="817.5" y="340" width="167" height="17" as="geometry" />
        </mxCell>
        <mxCell id="77wYk42ZuULAPkZGeNKV-27" value="&lt;font style=&quot;font-size: 12px;&quot;&gt;bronze.erp_loc_a101&lt;/font&gt;" style="swimlane;fontStyle=0;childLayout=stackLayout;horizontal=1;startSize=30;horizontalStack=0;resizeParent=1;resizeParentMax=0;resizeLast=0;collapsible=1;marginBottom=0;whiteSpace=wrap;html=1;rounded=1;fillColor=#ffe6cc;strokeColor=#d79b00;fontSize=26;" parent="1" vertex="1">
          <mxGeometry x="808" y="357" width="190" height="60" as="geometry" />
        </mxCell>
        <mxCell id="77wYk42ZuULAPkZGeNKV-28" value="&lt;font style=&quot;font-size: 12px;&quot;&gt;cid&lt;/font&gt;" style="text;strokeColor=none;fillColor=none;align=left;verticalAlign=middle;spacingLeft=4;spacingRight=4;overflow=hidden;points=[[0,0.5],[1,0.5]];portConstraint=eastwest;rotatable=0;whiteSpace=wrap;html=1;fontSize=14;" parent="77wYk42ZuULAPkZGeNKV-27" vertex="1">
          <mxGeometry y="30" width="190" height="30" as="geometry" />
        </mxCell>
        <mxCell id="77wYk42ZuULAPkZGeNKV-31" value="&lt;font style=&quot;font-size: 11px;&quot;&gt;&lt;b&gt;category information&lt;/b&gt;&lt;/font&gt;" style="text;html=1;align=center;verticalAlign=middle;whiteSpace=wrap;rounded=0;" parent="1" vertex="1">
          <mxGeometry x="818" y="140" width="167" height="16" as="geometry" />
        </mxCell>
        <mxCell id="77wYk42ZuULAPkZGeNKV-32" value="&lt;font style=&quot;font-size: 12px;&quot;&gt;bronze.erp_px_cat_giv2&lt;/font&gt;" style="swimlane;fontStyle=0;childLayout=stackLayout;horizontal=1;startSize=30;horizontalStack=0;resizeParent=1;resizeParentMax=0;resizeLast=0;collapsible=1;marginBottom=0;whiteSpace=wrap;html=1;rounded=1;fillColor=#ffe6cc;strokeColor=#d79b00;fontSize=26;" parent="1" vertex="1">
          <mxGeometry x="810" y="164" width="186.5" height="60" as="geometry" />
        </mxCell>
        <mxCell id="77wYk42ZuULAPkZGeNKV-33" value="&lt;font style=&quot;font-size: 12px;&quot;&gt;id&lt;/font&gt;" style="text;strokeColor=none;fillColor=none;align=left;verticalAlign=middle;spacingLeft=4;spacingRight=4;overflow=hidden;points=[[0,0.5],[1,0.5]];portConstraint=eastwest;rotatable=0;whiteSpace=wrap;html=1;fontSize=14;" parent="77wYk42ZuULAPkZGeNKV-32" vertex="1">
          <mxGeometry y="30" width="186.5" height="30" as="geometry" />
        </mxCell>
        <mxCell id="77wYk42ZuULAPkZGeNKV-34" style="edgeStyle=orthogonalEdgeStyle;rounded=0;orthogonalLoop=1;jettySize=auto;html=1;entryX=0;entryY=0.5;entryDx=0;entryDy=0;" parent="1" edge="1">
          <mxGeometry relative="1" as="geometry">
            <mxPoint x="641" y="251" as="sourcePoint" />
            <mxPoint x="804.5" y="191" as="targetPoint" />
            <Array as="points">
              <mxPoint x="702" y="251" />
              <mxPoint x="702" y="191" />
            </Array>
          </mxGeometry>
        </mxCell>
        <mxCell id="77wYk42ZuULAPkZGeNKV-37" value="&lt;b&gt;CRM&lt;/b&gt;" style="rounded=0;whiteSpace=wrap;html=1;strokeColor=none;" parent="1" vertex="1">
          <mxGeometry x="378.5" y="110" width="96" height="40" as="geometry" />
        </mxCell>
        <mxCell id="77wYk42ZuULAPkZGeNKV-40" style="edgeStyle=orthogonalEdgeStyle;rounded=0;orthogonalLoop=1;jettySize=auto;html=1;entryX=0.026;entryY=0.733;entryDx=0;entryDy=0;entryPerimeter=0;" parent="1" edge="1">
          <mxGeometry relative="1" as="geometry">
            <mxPoint x="645.5" y="403.99" as="sourcePoint" />
            <mxPoint x="808.94" y="403.99" as="targetPoint" />
          </mxGeometry>
        </mxCell>
        <mxCell id="77wYk42ZuULAPkZGeNKV-41" value="&lt;b&gt;ERP&lt;/b&gt;" style="rounded=0;whiteSpace=wrap;html=1;strokeColor=none;" parent="1" vertex="1">
          <mxGeometry x="852" y="114" width="96" height="23" as="geometry" />
        </mxCell>
        <mxCell id="RwwgOGpqvkWr53X6kZAT-1" value="&lt;b&gt;SALES&lt;/b&gt;" style="rounded=1;whiteSpace=wrap;html=1;fillColor=#dae8fc;strokeColor=#6c8ebf;" vertex="1" parent="1">
          <mxGeometry x="287" y="308" width="100" height="30" as="geometry" />
        </mxCell>
        <mxCell id="RwwgOGpqvkWr53X6kZAT-5" value="&lt;b&gt;CUSTOMER&lt;/b&gt;" style="rounded=1;whiteSpace=wrap;html=1;fillColor=#e1d5e7;strokeColor=#9673a6;" vertex="1" parent="1">
          <mxGeometry x="920" y="400" width="78" height="30" as="geometry" />
        </mxCell>
        <mxCell id="RwwgOGpqvkWr53X6kZAT-6" value="&lt;b&gt;PRODUCT&lt;/b&gt;" style="rounded=1;whiteSpace=wrap;html=1;fillColor=#e3c800;strokeColor=#B09500;fontColor=#000000;" vertex="1" parent="1">
          <mxGeometry x="930" y="311" width="70" height="30" as="geometry" />
        </mxCell>
        <mxCell id="RwwgOGpqvkWr53X6kZAT-7" value="&lt;b&gt;CUSTOMER&lt;/b&gt;" style="rounded=1;whiteSpace=wrap;html=1;fillColor=#e1d5e7;strokeColor=#9673a6;" vertex="1" parent="1">
          <mxGeometry x="571.5" y="390" width="78" height="30" as="geometry" />
        </mxCell>
        <mxCell id="RwwgOGpqvkWr53X6kZAT-8" value="&lt;b&gt;CUSTOMER&lt;/b&gt;" style="rounded=1;whiteSpace=wrap;html=1;fillColor=#e1d5e7;strokeColor=#9673a6;" vertex="1" parent="1">
          <mxGeometry x="574" y="233" width="78" height="30" as="geometry" />
        </mxCell>
        <mxCell id="RwwgOGpqvkWr53X6kZAT-12" value="&lt;b&gt;PRODUCT&lt;/b&gt;" style="rounded=1;whiteSpace=wrap;html=1;fillColor=#e3c800;strokeColor=#B09500;fontColor=#000000;" vertex="1" parent="1">
          <mxGeometry x="924" y="210" width="70" height="30" as="geometry" />
        </mxCell>
        <mxCell id="RwwgOGpqvkWr53X6kZAT-16" value="&lt;font style=&quot;font-size: 18px;&quot;&gt;Data Integration&lt;/font&gt;" style="rounded=0;whiteSpace=wrap;html=1;strokeColor=none;" vertex="1" parent="1">
          <mxGeometry x="200" y="34" width="140" height="60" as="geometry" />
        </mxCell>
      </root>
    </mxGraphModel>
  </diagram>
</mxfile>
